<?xml version="1.0" encoding="iso-8859-1"?>
<!-- Generator: Adobe Illustrator 19.0.0, SVG Export Plug-In . SVG Version: 6.00 Build 0)  -->
<svg version="1.1" id="Capa_1" xmlns="http://www.w3.org/2000/svg" xmlns:xlink="http://www.w3.org/1999/xlink" x="0px" y="0px"
	 viewBox="0 0 503.165 503.165" style="enable-background:new 0 0 503.165 503.165;" xml:space="preserve">
<g>
	<path style="fill:#FFE100;" d="M469.62,419.6H41.93c-13.896,0-25.158-11.282-25.158-25.203V108.768
		c0-13.92,11.263-25.203,25.158-25.203h427.69c13.896,0,25.158,11.282,25.158,25.203v285.629
		C494.779,408.317,483.516,419.6,469.62,419.6"/>
	<g>
		<path style="fill:#FFA800;" d="M474.655,84.074c1.308,0.269,2.549,0.706,3.774,1.168
			C477.196,84.779,475.964,84.342,474.655,84.074"/>
		<path style="fill:#FFA800;" d="M479.329,85.52c2.952,1.243,5.619,3.041,7.875,5.251C484.948,88.561,482.289,86.763,479.329,85.52"
			/>
		<path style="fill:#FFA800;" d="M487.269,90.829l-17.728,17.146c0.008,0.269,0.084,0.521,0.084,0.79v285.629
			c0,13.92-11.271,25.203-25.158,25.203h25.158c13.887,0,25.158-11.282,25.158-25.203V108.765
			C494.783,101.742,491.898,95.4,487.269,90.829"/>
	</g>
	<g>
		<path style="fill:#FFFFFF;" d="M15.963,90.775c2.256-2.209,4.923-4.007,7.875-5.251C20.877,86.759,18.219,88.565,15.963,90.775"/>
		<path style="fill:#FFFFFF;" d="M24.74,85.239c1.224-0.462,2.466-0.899,3.774-1.168C27.205,84.34,25.964,84.777,24.74,85.239"/>
		<path style="fill:#FFFFFF;" d="M33.544,394.397V108.768c0-0.269,0.067-0.521,0.084-0.79L15.9,90.832
			c-4.629,4.57-7.514,10.913-7.514,17.936v285.629c0,13.92,11.263,25.203,25.158,25.203h25.158
			C44.807,419.6,33.544,408.317,33.544,394.397"/>
	</g>
	<path style="fill:#63D3FD;" d="M427.69,175.975c0-18.557-15.019-33.603-33.544-33.603c-18.525,0-33.544,15.046-33.544,33.603
		s15.019,33.603,33.544,33.603C412.671,209.578,427.69,194.532,427.69,175.975"/>
	<path style="fill:#3DB9F9;" d="M394.146,142.371c-4.453,0-8.688,0.916-12.579,2.495c12.286,4.99,20.965,17.012,20.965,31.108
		c0,14.097-8.68,26.118-20.965,31.108c3.891,1.579,8.126,2.495,12.579,2.495c18.525,0,33.544-15.046,33.544-33.603
		S412.671,142.371,394.146,142.371"/>
	<path style="fill:#FDCC00;" d="M360.601,175.975c0-18.557,15.019-33.603,33.544-33.603c10.751,0,20.21,5.158,26.357,13.038
		l66.762-64.577c-4.537-4.486-10.759-7.267-17.644-7.267H33.544c-6.885,0-13.107,2.781-17.644,7.267l191.295,185.02
		c24.764,23.951,64.011,23.951,88.775,0l76.749-74.222C365.373,195.465,360.601,186.325,360.601,175.975"/>
	<g>
		<path d="M29.621,410.735c1.266,0.311,2.591,0.462,3.925,0.462h436.076c1.333,0,2.65-0.151,3.925-0.462L321.063,263.258
			l-19.271,18.642c-28.152,27.236-72.263,27.236-100.423,0l-19.263-18.642L29.621,410.735z M469.622,427.999H33.546
			c-8.847,0-17.208-3.436-23.531-9.678c-1.61-1.588-2.516-3.764-2.507-6.023c0.008-2.268,0.939-4.436,2.566-6.007l166.204-160.75
			c3.245-3.142,8.403-3.142,11.648,0l25.091,24.27c21.619,20.91,55.491,20.91,77.127,0l25.1-24.27c3.237-3.142,8.403-3.142,11.64,0
			l166.212,160.75c1.627,1.571,2.549,3.738,2.558,6.007c0.008,2.26-0.889,4.436-2.507,6.023
			C486.83,424.563,478.461,427.999,469.622,427.999L469.622,427.999z"/>
		<path d="M394.146,150.772c-13.871,0-25.158,11.308-25.158,25.203c0,13.895,11.288,25.203,25.158,25.203
			c13.871,0,25.158-11.308,25.158-25.203C419.304,162.08,408.016,150.772,394.146,150.772 M394.146,217.979
			c-23.12,0-41.93-18.843-41.93-42.004s18.81-42.004,41.93-42.004c23.12,0,41.93,18.843,41.93,42.004
			S417.266,217.979,394.146,217.979"/>
		<path d="M29.621,92.43l183.395,177.384c21.619,20.901,55.491,20.91,77.127,0l70.762-68.442
			c-5.594-7.267-8.688-16.155-8.688-25.396c0-23.161,18.81-42.004,41.93-42.004c9.795,0,19.078,3.428,26.517,9.602l52.883-51.144
			c-1.275-0.311-2.591-0.462-3.925-0.462H33.546C32.213,91.968,30.888,92.119,29.621,92.43 M251.584,302.317
			c-18.072,0-36.136-6.805-50.216-20.422L10.073,96.874c-1.627-1.571-2.558-3.738-2.566-6.007c-0.008-2.26,0.897-4.436,2.507-6.023
			c6.323-6.242,14.684-9.678,23.531-9.678h436.076c8.839,0,17.208,3.436,23.523,9.678c1.618,1.588,2.516,3.764,2.507,6.023
			c-0.008,2.268-0.931,4.436-2.558,6.007l-66.77,64.577c-1.702,1.663-4.084,2.503-6.415,2.344c-2.365-0.168-4.554-1.336-6.021-3.218
			c-4.856-6.225-12.051-9.804-19.741-9.804c-13.879,0-25.158,11.308-25.158,25.203c0,7.351,3.321,14.349,9.116,19.213
			c1.811,1.529,2.902,3.764,2.985,6.141c0.092,2.386-0.839,4.688-2.558,6.343l-76.741,74.222
			C287.711,295.512,269.648,302.317,251.584,302.317"/>
		<path d="M327.057,142.371H176.108c-4.638,0-8.386-3.764-8.386-8.401c0-4.637,3.749-8.401,8.386-8.401h150.949
			c4.638,0,8.386,3.764,8.386,8.401C335.443,138.608,331.695,142.371,327.057,142.371"/>
		<path d="M301.899,192.776H201.266c-4.638,0-8.386-3.764-8.386-8.401c0-4.637,3.749-8.401,8.386-8.401h100.633
			c4.638,0,8.386,3.764,8.386,8.401C310.285,189.013,306.536,192.776,301.899,192.776"/>
		<path d="M16.772,226.38c0,4.637-3.757,8.401-8.386,8.401S0,231.017,0,226.38c0-4.637,3.757-8.401,8.386-8.401
			S16.772,221.743,16.772,226.38"/>
		<path d="M469.62,428H33.544C15.045,428,0,412.929,0,394.397V259.983c0-4.637,3.749-8.401,8.386-8.401s8.386,3.764,8.386,8.401
			v134.414c0,9.266,7.522,16.802,16.772,16.802H469.62c9.25,0,16.772-7.536,16.772-16.802V108.768
			c0-9.266-7.522-16.802-16.772-16.802H33.544c-9.25,0-16.772,7.536-16.772,16.802v84.009c0,4.637-3.749,8.401-8.386,8.401
			S0,197.414,0,192.776v-84.009c0-18.532,15.045-33.603,33.544-33.603H469.62c18.5,0,33.544,15.071,33.544,33.603v285.629
			C503.165,412.929,488.12,428,469.62,428"/>
	</g>
</g>
<g>
</g>
<g>
</g>
<g>
</g>
<g>
</g>
<g>
</g>
<g>
</g>
<g>
</g>
<g>
</g>
<g>
</g>
<g>
</g>
<g>
</g>
<g>
</g>
<g>
</g>
<g>
</g>
<g>
</g>
</svg>
